<svg width="31" height="50" viewBox="0 0 31 50" fill="none" xmlns="http://www.w3.org/2000/svg">
<g clip-path="url(#clip0_12_384)">
<path d="M4.73218 10.7423V21.0079C5.35749 20.8717 6.05041 20.7525 6.76023 20.6333V10.2656H5.20539C4.95188 10.2656 4.73218 10.4699 4.73218 10.7423Z" fill="#0032A1"/>
<path d="M0 25.7576C0 26.3535 0.692919 27.1366 3.12658 27.8686C3.16039 27.8686 3.19419 27.8686 3.19419 27.8346C3.21109 27.8005 3.19419 27.7665 3.16039 27.7665C2.33226 27.409 1.89285 27.0344 1.89285 26.6259C1.89285 25.9619 3.14348 25.3831 4.73213 24.9745V39.2748C4.73213 39.5472 4.95183 39.7515 5.20534 39.7515H6.76018V22.8635C3.8871 23.2891 0 24.2765 0 25.7576Z" fill="#0032A1"/>
<path d="M8.97412 5.99248V20.3439C9.83604 20.2587 10.7318 20.1736 11.6613 20.1225V5.49878H9.46423C9.19383 5.49878 8.97412 5.72009 8.97412 5.99248Z" fill="#0032A1"/>
<path d="M8.97418 44.0075C8.97418 44.2799 9.19388 44.4842 9.44739 44.4842H11.6444V22.3528C10.7149 22.4039 9.8192 22.472 8.95728 22.5741L8.97418 44.0075Z" fill="#0032A1"/>
<path d="M17.3061 20.0375V0.476677C17.3061 0.221314 17.1033 0 16.8329 0H14.3316C14.0781 0 13.8584 0.20429 13.8584 0.476677V20.0375C14.4161 20.0204 14.9907 20.0204 15.5822 20.0204C16.1569 20.0204 16.7484 20.0204 17.3061 20.0375Z" fill="#0032A1"/>
<path d="M13.8584 22.2675V49.5232C13.8584 49.7786 14.0612 49.9999 14.3316 49.9999H16.8329C17.0864 49.9999 17.3061 49.7786 17.3061 49.5232V22.2675C16.7315 22.2505 16.1569 22.2505 15.5822 22.2505C15.0076 22.2505 14.433 22.2505 13.8584 22.2675Z" fill="#0032A1"/>
<path d="M19.5201 44.5012H21.7171C21.9875 44.5012 22.1903 44.2799 22.1903 44.0246V22.5741C21.3284 22.489 20.4327 22.4039 19.5032 22.3528L19.5201 44.5012Z" fill="#0032A1"/>
<path d="M21.7171 5.49878H19.52V20.1225C20.4495 20.1736 21.3453 20.2587 22.2072 20.3439V5.99248C22.2072 5.72009 21.9875 5.49878 21.7171 5.49878Z" fill="#0032A1"/>
<path d="M26.4324 10.7423C26.4324 10.4699 26.2126 10.2656 25.9591 10.2656H24.4043V20.6333C25.131 20.7525 25.807 20.8717 26.4324 21.0079V10.7423Z" fill="#0032A1"/>
<path d="M28.0379 23.6466C28.0041 23.6466 27.9703 23.6637 27.9703 23.6977C27.9703 23.7147 27.9703 23.7488 28.0041 23.7658C29.0012 24.1914 29.2716 24.6 29.2716 24.8894C29.2716 25.5193 28.19 26.0811 26.4324 26.5407V23.2381C25.807 23.1019 25.1141 22.9827 24.4043 22.8635V39.7515H25.9591C26.2295 39.7515 26.4324 39.5302 26.4324 39.2748V28.2942C29.3561 27.6473 31.1645 26.7621 31.1645 25.7747C31.1645 25.1277 30.404 24.3276 28.0379 23.6466Z" fill="#0032A1"/>
</g>
<defs>
<clipPath id="clip0_12_384">
<rect width="31" height="50" fill="white"/>
</clipPath>
</defs>
</svg>
